<mxfile host="app.diagrams.net" modified="2023-06-01T18:43:38.423Z" agent="Mozilla/5.0 (Windows NT 10.0; Win64; x64) AppleWebKit/537.36 (KHTML, like Gecko) Chrome/112.0.0.0 Safari/537.36 OPR/98.0.0.0" version="21.3.6" etag="sXXDcg2pJKE_dbf_DKf5" type="github">
  <diagram name="PÃ¡gina-1" id="yp4ke8ESpql3IhND16Id">
    <mxGraphModel>
      <root>
        <mxCell id="0" />
        <mxCell id="1" parent="0" />
      </root>
    </mxGraphModel>
  </diagram>
</mxfile>
